<svg width="151" height="61" viewBox="0 0 151 61" fill="none" xmlns="http://www.w3.org/2000/svg">
<path d="M31.5 9L33.4084 14.8734L39.584 14.8734L34.5878 18.5033L36.4962 24.3766L31.5 20.7467L26.5038 24.3766L28.4122 18.5033L23.416 14.8734L29.5916 14.8734L31.5 9Z" fill="#FFA725"/>
<path d="M53.5 9L55.4084 14.8734L61.584 14.8734L56.5878 18.5033L58.4962 24.3766L53.5 20.7467L48.5038 24.3766L50.4122 18.5033L45.416 14.8734L51.5916 14.8734L53.5 9Z" fill="#FFA725"/>
<path d="M75.5 9L77.4084 14.8734L83.584 14.8734L78.5878 18.5033L80.4962 24.3766L75.5 20.7467L70.5038 24.3766L72.4122 18.5033L67.416 14.8734L73.5916 14.8734L75.5 9Z" fill="#FFA725"/>
<path d="M97.5 9L99.4084 14.8734L105.584 14.8734L100.588 18.5033L102.496 24.3766L97.5 20.7467L92.5038 24.3766L94.4122 18.5033L89.416 14.8734L95.5916 14.8734L97.5 9Z" fill="#FFA725"/>
<path d="M119.5 9L121.408 14.8734L127.584 14.8734L122.588 18.5033L124.496 24.3766L119.5 20.7467L114.504 24.3766L116.412 18.5033L111.416 14.8734L117.592 14.8734L119.5 9Z" fill="#FFA725"/>
<path d="M20.434 46L23.878 36.984H26.314L29.758 46H27.406L26.594 43.956H23.584L22.786 46H20.434ZM23.892 42.29H26.286L25.082 39.154L23.892 42.29ZM32.6894 46.14C31.9054 46.14 31.294 45.9207 30.8554 45.482C30.4167 45.034 30.1974 44.3853 30.1974 43.536V39.364H32.4514V43.41C32.4514 43.7833 32.54 44.0587 32.7174 44.236C32.904 44.404 33.1794 44.488 33.5434 44.488C33.814 44.488 34.0707 44.432 34.3134 44.32C34.556 44.208 34.7567 44.068 34.9154 43.9V39.364H37.1694V46H35.0694L34.9994 45.44C34.7287 45.6453 34.402 45.8133 34.0194 45.944C33.6367 46.0747 33.1934 46.14 32.6894 46.14ZM41.3828 46.14C40.7388 46.14 40.1881 46.0373 39.7308 45.832C39.2735 45.6267 38.9235 45.2907 38.6808 44.824C38.4381 44.348 38.3168 43.7133 38.3168 42.92C38.3168 42.1173 38.4568 41.4453 38.7368 40.904C39.0168 40.3533 39.3995 39.938 39.8848 39.658C40.3795 39.3687 40.9441 39.224 41.5788 39.224C41.9241 39.224 42.2321 39.2613 42.5028 39.336C42.7828 39.4107 43.0441 39.5227 43.2868 39.672V36.564H45.5408V46H43.5948L43.4688 45.44C43.1981 45.6733 42.8948 45.8507 42.5588 45.972C42.2228 46.084 41.8308 46.14 41.3828 46.14ZM42.0268 44.502C42.5215 44.502 42.9415 44.334 43.2868 43.998V41.31C42.9695 41.0207 42.5635 40.876 42.0688 40.876C41.5928 40.876 41.2288 41.058 40.9768 41.422C40.7341 41.7767 40.6128 42.2807 40.6128 42.934C40.6128 43.5687 40.7295 43.9887 40.9628 44.194C41.2055 44.3993 41.5601 44.502 42.0268 44.502ZM47.412 38.314V36.62H49.862V38.314H47.412ZM47.594 46V41.03H46.614L46.81 39.364H49.848V46H47.594ZM54.0143 46.14C53.193 46.14 52.5863 45.93 52.1943 45.51C51.8116 45.09 51.6203 44.5113 51.6203 43.774V41.072H50.7243V39.364H51.6203V37.978L53.8743 37.376V39.364H55.4843L55.3863 41.072H53.8743V43.62C53.8743 43.9373 53.9536 44.1613 54.1123 44.292C54.271 44.4133 54.509 44.474 54.8263 44.474C55.097 44.474 55.3723 44.4273 55.6523 44.334V45.86C55.2136 46.0467 54.6676 46.14 54.0143 46.14ZM60.0766 46.14C58.9193 46.14 57.9906 45.8553 57.2906 45.286C56.5906 44.7073 56.2406 43.8393 56.2406 42.682C56.2406 41.6273 56.53 40.7873 57.1086 40.162C57.6873 39.5367 58.5553 39.224 59.7126 39.224C60.7673 39.224 61.584 39.4947 62.1626 40.036C62.7413 40.5773 63.0306 41.3053 63.0306 42.22V43.41H58.3266C58.4293 43.8487 58.6673 44.1567 59.0406 44.334C59.4233 44.502 59.9413 44.586 60.5946 44.586C60.9586 44.586 61.3273 44.5533 61.7006 44.488C62.0833 44.4227 62.4006 44.3387 62.6526 44.236V45.706C62.3353 45.8553 61.9573 45.9627 61.5186 46.028C61.08 46.1027 60.5993 46.14 60.0766 46.14ZM58.3266 42.108H61.0706V41.814C61.0706 41.4873 60.9726 41.2307 60.7766 41.044C60.5806 40.848 60.2493 40.75 59.7826 40.75C59.2413 40.75 58.8633 40.862 58.6486 41.086C58.434 41.3007 58.3266 41.6413 58.3266 42.108ZM66.9629 46.14C66.3189 46.14 65.7682 46.0373 65.3109 45.832C64.8536 45.6267 64.5036 45.2907 64.2609 44.824C64.0182 44.348 63.8969 43.7133 63.8969 42.92C63.8969 42.1173 64.0369 41.4453 64.3169 40.904C64.5969 40.3533 64.9796 39.938 65.4649 39.658C65.9596 39.3687 66.5242 39.224 67.1589 39.224C67.5042 39.224 67.8122 39.2613 68.0829 39.336C68.3629 39.4107 68.6242 39.5227 68.8669 39.672V36.564H71.1209V46H69.1749L69.0489 45.44C68.7782 45.6733 68.4749 45.8507 68.1389 45.972C67.8029 46.084 67.4109 46.14 66.9629 46.14ZM67.6069 44.502C68.1016 44.502 68.5216 44.334 68.8669 43.998V41.31C68.5496 41.0207 68.1436 40.876 67.6489 40.876C67.1729 40.876 66.8089 41.058 66.5569 41.422C66.3142 41.7767 66.1929 42.2807 66.1929 42.934C66.1929 43.5687 66.3096 43.9887 66.5429 44.194C66.7856 44.3993 67.1402 44.502 67.6069 44.502ZM80.1159 46.14C78.5386 46.14 77.3346 45.7387 76.5039 44.936C75.6826 44.124 75.2719 42.9993 75.2719 41.562C75.2719 40.0593 75.6732 38.8973 76.4759 38.076C77.2879 37.2547 78.4966 36.844 80.1019 36.844C80.6526 36.844 81.1426 36.886 81.5719 36.97C82.0106 37.054 82.4306 37.166 82.8319 37.306V39.28C82.0199 38.944 81.1659 38.776 80.2699 38.776C79.3366 38.776 78.6506 39 78.2119 39.448C77.7826 39.896 77.5679 40.6007 77.5679 41.562C77.5679 42.4767 77.7966 43.1487 78.2539 43.578C78.7112 44.0073 79.3926 44.222 80.2979 44.222C80.7366 44.222 81.1706 44.1847 81.5999 44.11C82.0292 44.026 82.4446 43.9 82.8459 43.732V45.72C82.4539 45.8507 82.0386 45.9533 81.5999 46.028C81.1612 46.1027 80.6666 46.14 80.1159 46.14ZM87.4454 46.14C86.1668 46.14 85.2241 45.846 84.6174 45.258C84.0108 44.6607 83.7074 43.802 83.7074 42.682C83.7074 41.5713 84.0108 40.7173 84.6174 40.12C85.2334 39.5227 86.1761 39.224 87.4454 39.224C88.7241 39.224 89.6668 39.5227 90.2734 40.12C90.8894 40.7173 91.1974 41.5713 91.1974 42.682C91.1974 43.802 90.8941 44.6607 90.2874 45.258C89.6808 45.846 88.7334 46.14 87.4454 46.14ZM87.4454 44.376C87.9681 44.376 88.3414 44.2453 88.5654 43.984C88.7894 43.7227 88.9014 43.2887 88.9014 42.682C88.9014 42.0753 88.7894 41.6413 88.5654 41.38C88.3414 41.1187 87.9681 40.988 87.4454 40.988C86.9321 40.988 86.5634 41.1187 86.3394 41.38C86.1154 41.6413 86.0034 42.0753 86.0034 42.682C86.0034 43.2887 86.1154 43.7227 86.3394 43.984C86.5634 44.2453 86.9321 44.376 87.4454 44.376ZM92.341 46V39.364H94.441L94.511 39.938C94.7816 39.7513 95.1223 39.588 95.533 39.448C95.9436 39.2987 96.3823 39.224 96.849 39.224C97.7076 39.224 98.333 39.4293 98.725 39.84C99.117 40.2507 99.313 40.8853 99.313 41.744V46H97.059V41.926C97.059 41.5527 96.9796 41.2867 96.821 41.128C96.6623 40.9693 96.3776 40.89 95.967 40.89C95.7243 40.89 95.477 40.946 95.225 41.058C94.973 41.17 94.763 41.31 94.595 41.478V46H92.341ZM103.397 46.14C102.576 46.14 101.969 45.93 101.577 45.51C101.194 45.09 101.003 44.5113 101.003 43.774V41.072H100.107V39.364H101.003V37.978L103.257 37.376V39.364H104.867L104.769 41.072H103.257V43.62C103.257 43.9373 103.336 44.1613 103.495 44.292C103.654 44.4133 103.892 44.474 104.209 44.474C104.48 44.474 104.755 44.4273 105.035 44.334V45.86C104.596 46.0467 104.05 46.14 103.397 46.14ZM105.903 46V39.364H108.045L108.115 39.98C108.405 39.8027 108.764 39.644 109.193 39.504C109.623 39.3547 110.052 39.2613 110.481 39.224V40.918C110.239 40.946 109.968 40.9927 109.669 41.058C109.38 41.114 109.1 41.184 108.829 41.268C108.568 41.352 108.344 41.4407 108.157 41.534V46H105.903ZM112.979 46.14C112.559 46.14 112.167 46.0653 111.803 45.916C111.449 45.7667 111.164 45.538 110.949 45.23C110.735 44.9127 110.627 44.5207 110.627 44.054C110.627 43.3727 110.856 42.8407 111.313 42.458C111.78 42.066 112.475 41.87 113.399 41.87H115.247V41.716C115.247 41.38 115.135 41.142 114.911 41.002C114.687 40.8527 114.267 40.778 113.651 40.778C112.895 40.778 112.153 40.8947 111.425 41.128V39.672C111.752 39.5413 112.149 39.434 112.615 39.35C113.091 39.266 113.591 39.224 114.113 39.224C115.14 39.224 115.943 39.434 116.521 39.854C117.109 40.274 117.403 40.9413 117.403 41.856V46H115.429L115.317 45.44C115.075 45.664 114.762 45.8367 114.379 45.958C114.006 46.0793 113.539 46.14 112.979 46.14ZM113.693 44.754C114.048 44.754 114.356 44.6933 114.617 44.572C114.879 44.4507 115.089 44.2967 115.247 44.11V43.172H113.651C112.989 43.172 112.657 43.438 112.657 43.97C112.657 44.2127 112.741 44.404 112.909 44.544C113.077 44.684 113.339 44.754 113.693 44.754ZM122.255 46.14C121.07 46.14 120.141 45.8507 119.469 45.272C118.806 44.6933 118.475 43.83 118.475 42.682C118.475 41.5153 118.82 40.6473 119.511 40.078C120.211 39.5087 121.14 39.224 122.297 39.224C122.782 39.224 123.202 39.2613 123.557 39.336C123.921 39.4013 124.271 39.5133 124.607 39.672V41.268C124.084 41.016 123.473 40.89 122.773 40.89C122.12 40.89 121.62 41.0207 121.275 41.282C120.939 41.5433 120.771 42.01 120.771 42.682C120.771 43.3073 120.93 43.7647 121.247 44.054C121.564 44.334 122.068 44.474 122.759 44.474C123.44 44.474 124.061 44.334 124.621 44.054V45.72C124.285 45.8693 123.921 45.9767 123.529 46.042C123.146 46.1073 122.722 46.14 122.255 46.14ZM128.499 46.14C127.677 46.14 127.071 45.93 126.679 45.51C126.296 45.09 126.105 44.5113 126.105 43.774V41.072H125.209V39.364H126.105V37.978L128.359 37.376V39.364H129.969L129.871 41.072H128.359V43.62C128.359 43.9373 128.438 44.1613 128.597 44.292C128.755 44.4133 128.993 44.474 129.311 44.474C129.581 44.474 129.857 44.4273 130.137 44.334V45.86C129.698 46.0467 129.152 46.14 128.499 46.14Z" fill="#A96300"/>
<rect x="1" y="1" width="149" height="59" rx="14" stroke="#A96300" stroke-width="2"/>
</svg>
