<svg width="24" height="24" viewBox="0 0 24 24" fill="none" xmlns="http://www.w3.org/2000/svg">
<path d="M12.288 7.90799H10.5735V11.2883H13.271V12.7035H10.5735V16.0836H12.372C12.8342 16.0836 16.166 16.1358 16.1608 12.1509C16.1556 8.16611 12.9293 7.90799 12.288 7.90799Z" fill="#A96300"/>
<path d="M12 0C5.37252 0 0 5.37252 0 12C0 18.6275 5.37252 24 12 24C18.6275 24 24 18.6275 24 12C24 5.37252 18.6275 0 12 0ZM12.4715 18.4812H8.12568V12.7037H6.59376V11.2884H8.12556V5.51052H11.8554C12.7378 5.51052 18.5821 5.32728 18.5821 12.1043C18.5821 18.9934 12.4716 18.4812 12.4716 18.4812H12.4715Z" fill="#A96300"/>
</svg>
