<svg width="22" height="22" viewBox="0 0 22 22" fill="none" xmlns="http://www.w3.org/2000/svg">
<path d="M11.0842 21.1666C7.00622 21.169 3.32869 18.7128 1.76777 14.9442C0.206856 11.1755 1.07025 6.83741 3.95504 3.95414C6.50206 1.40634 10.2144 0.411319 13.6937 1.34388C17.173 2.27643 19.8906 4.99489 20.8229 8.47524C21.7551 11.9556 20.7604 15.6691 18.2134 18.2169C16.3263 20.1131 13.7591 21.1753 11.0842 21.1666ZM3.02181 11.2589C3.0695 15.6958 6.69133 19.2608 11.1272 19.2371C15.5629 19.2131 19.1462 15.6094 19.1462 11.1722C19.1462 6.73502 15.5629 3.13129 11.1272 3.10733C6.69133 3.08359 3.0695 6.64857 3.02181 11.0855V11.2589ZM8.47302 15.118L7.05302 13.6965L9.66322 11.0855L7.05302 8.4745L8.47402 7.05306L11.0842 9.66409L13.6944 7.05306L15.1154 8.4745L12.5052 11.0855L15.1154 13.6965L13.6954 15.118L11.0842 12.507L8.47402 15.118H8.47302Z" fill="#A96300"/>
</svg>
