<svg width="23" height="23" viewBox="0 0 23 23" fill="none" xmlns="http://www.w3.org/2000/svg">
<path d="M18.5714 8.35715H10.2143C9.18859 8.35715 8.35712 9.18862 8.35712 10.2143V18.5714C8.35712 19.5971 9.18859 20.4286 10.2143 20.4286H18.5714C19.5971 20.4286 20.4285 19.5971 20.4285 18.5714V10.2143C20.4285 9.18862 19.5971 8.35715 18.5714 8.35715Z" stroke="#A96300" stroke-width="2.47619" stroke-linecap="round" stroke-linejoin="round"/>
<path d="M4.64283 13.9286H3.71426C3.22171 13.9286 2.74934 13.7329 2.40106 13.3846C2.05278 13.0363 1.85712 12.564 1.85712 12.0714V3.71429C1.85712 3.22175 2.05278 2.74937 2.40106 2.40109C2.74934 2.05281 3.22171 1.85715 3.71426 1.85715H12.0714C12.5639 1.85715 13.0363 2.05281 13.3846 2.40109C13.7329 2.74937 13.9285 3.22175 13.9285 3.71429V4.64286" stroke="#A96300" stroke-width="2.47619" stroke-linecap="round" stroke-linejoin="round"/>
</svg>
