<svg width="22" height="22" viewBox="0 0 22 22" fill="none" xmlns="http://www.w3.org/2000/svg">
<path d="M1.83337 11L6.41671 14.6666V11.9166H14.6667V10.0833H6.41671V7.33331L1.83337 11Z" fill="#FFF3E2"/>
<path d="M11.9175 2.74905C10.8336 2.74605 9.75984 2.95816 8.75846 3.37309C7.75709 3.78802 6.848 4.39753 6.08386 5.1663L7.38003 6.46247C8.59186 5.25064 10.2034 4.58239 11.9175 4.58239C13.6317 4.58239 15.2432 5.25064 16.455 6.46247C17.6669 7.6743 18.3351 9.2858 18.3351 11C18.3351 12.7141 17.6669 14.3256 16.455 15.5375C15.2432 16.7493 13.6317 17.4176 11.9175 17.4176C10.2034 17.4176 8.59186 16.7493 7.38003 15.5375L6.08386 16.8336C7.64128 18.392 9.71295 19.2509 11.9175 19.2509C14.1221 19.2509 16.1938 18.392 17.7512 16.8336C19.3095 15.2762 20.1684 13.2046 20.1684 11C20.1684 8.79539 19.3095 6.72372 17.7512 5.1663C16.9871 4.39753 16.078 3.78802 15.0766 3.37309C14.0752 2.95816 13.0015 2.74605 11.9175 2.74905V2.74905Z" fill="#FFF3E2"/>
</svg>
