<svg width="36" height="36" viewBox="0 0 36 36" fill="none" xmlns="http://www.w3.org/2000/svg">
<path d="M17.985 33C9.70269 32.9918 2.99448 26.2724 3 17.99C3.00552 9.70769 9.72269 2.99724 18.005 3C26.2874 3.00276 33 9.71768 33 18C32.9951 26.2881 26.2731 33.0033 17.985 33ZM6 18.258C6.07098 24.8598 11.4617 30.1643 18.0638 30.129C24.666 30.0933 29.9993 24.7313 29.9993 18.129C29.9993 11.5268 24.666 6.16466 18.0638 6.12899C11.4617 6.09368 6.07098 11.3981 6 18V18.258ZM19.5 25.5H16.5V22.5H19.5V25.5ZM19.5 19.5H16.5V10.5H19.5V19.5Z" fill="#F75353"/>
</svg>
