<svg width="40" height="40" viewBox="0 0 40 40" fill="none" xmlns="http://www.w3.org/2000/svg">
<path d="M36.4844 1.81909H3.51562C1.57711 1.81909 0 3.3962 0 5.33472V24.0847C0 26.0232 1.57711 27.6003 3.51562 27.6003H5.54688V28.6941C5.54688 30.97 7.08992 33.241 10.1332 35.4439C12.2575 36.9816 14.3548 37.9273 14.443 37.9667L14.9219 38.1811L15.4007 37.9667C15.4889 37.9273 17.5863 36.9815 19.7105 35.4439C22.7538 33.241 24.2969 30.97 24.2969 28.6941V27.6003H36.4844C38.4229 27.6003 40 26.0232 40 24.0847V5.33472C40 3.3962 38.4229 1.81909 36.4844 1.81909ZM21.9531 28.6941C21.9531 30.5314 20.0023 32.3347 18.3657 33.5239C17.0066 34.5116 15.626 35.2463 14.9214 35.5975C14.2234 35.25 12.8623 34.526 11.5074 33.5453C9.8575 32.351 7.89062 30.5398 7.89062 28.6941V19.9639C9.75141 19.5227 11.2192 18.0549 11.6604 16.1941H18.1833C18.6245 18.0549 20.0923 19.5227 21.953 19.9639V28.6941H21.9531ZM37.6562 24.0847C37.6562 24.7309 37.1305 25.2566 36.4844 25.2566H24.2969V17.7566H23.125C21.6173 17.7566 20.3906 16.53 20.3906 15.0222V13.8503H9.45312V15.0222C9.45312 16.53 8.22648 17.7566 6.71875 17.7566H5.54688V25.2566H3.51562C2.86945 25.2566 2.34375 24.7309 2.34375 24.0847V5.33472C2.34375 4.68854 2.86945 4.16284 3.51562 4.16284H36.4844C37.1305 4.16284 37.6562 4.68854 37.6562 5.33472V24.0847Z" fill="#FFA725"/>
<path d="M32.8906 18.2253H35.2344V20.5691H32.8906V18.2253Z" fill="#FFA725"/>
<path d="M31.7188 6.50659C30.819 6.50659 29.9975 6.84675 29.375 7.40464C28.7525 6.84667 27.931 6.50659 27.0312 6.50659C25.0927 6.50659 23.5156 8.0837 23.5156 10.0222C23.5156 11.9607 25.0927 13.5378 27.0312 13.5378C27.931 13.5378 28.7525 13.1977 29.375 12.6398C29.9975 13.1978 30.819 13.5378 31.7188 13.5378C33.6573 13.5378 35.2344 11.9607 35.2344 10.0222C35.2344 8.0837 33.6573 6.50659 31.7188 6.50659ZM27.0312 11.1941C26.3851 11.1941 25.8594 10.6684 25.8594 10.0222C25.8594 9.37605 26.3851 8.85034 27.0312 8.85034C27.6774 8.85034 28.2031 9.37605 28.2031 10.0222C28.2031 10.6684 27.6774 11.1941 27.0312 11.1941ZM31.7188 11.1941C31.0726 11.1941 30.5469 10.6684 30.5469 10.0222C30.5469 9.37605 31.0726 8.85034 31.7188 8.85034C32.3649 8.85034 32.8906 9.37605 32.8906 10.0222C32.8906 10.6684 32.3649 11.1941 31.7188 11.1941Z" fill="#FFA725"/>
<path d="M28.2031 18.2253H30.5469V20.5691H28.2031V18.2253Z" fill="#FFA725"/>
</svg>
